<svg width="169" height="38" viewBox="0 0 169 38" fill="none" xmlns="http://www.w3.org/2000/svg">
<g clip-path="url(#clip0_115_882)">
<path fill-rule="evenodd" clip-rule="evenodd" d="M8.0952 22.6729L8.35163 22.2802L11.1104 26.5465C11.1258 26.5693 11.1466 26.5879 11.1709 26.6008C11.1951 26.6137 11.2222 26.6204 11.2497 26.6204C11.2772 26.6204 11.3043 26.6137 11.3286 26.6008C11.3529 26.5879 11.3736 26.5693 11.389 26.5465C12.4501 24.9318 13.7322 22.9332 15.0365 20.9169C15.0531 20.8895 15.0616 20.8579 15.0608 20.8258C15.06 20.7938 15.05 20.7626 15.032 20.736C13.9444 19.0418 12.9541 17.4844 12.2069 16.3241L13.9135 13.6769C14.9038 15.2123 15.8455 16.6726 16.6148 17.8991C16.63 17.9228 16.651 17.9423 16.6757 17.9558C16.7004 17.9693 16.7281 17.9764 16.7563 17.9764C16.7845 17.9764 16.8122 17.9693 16.8369 17.9558C16.8617 17.9423 16.8826 17.9228 16.8978 17.8991C18.7149 15.0755 20.3198 12.5431 21.0891 11.3342C21.1066 11.3081 21.1159 11.2774 21.1159 11.2459C21.1159 11.2145 21.1066 11.1838 21.0891 11.1577C20.0457 9.53411 19.0863 8.02964 18.3303 6.84283C16.3009 3.63094 14.5413 0.882304 14.0417 0.0749202C14.0271 0.0511994 14.0066 0.0316146 13.9822 0.0180303C13.9578 0.00444607 13.9304 -0.00268555 13.9024 -0.00268555C13.8745 -0.00268555 13.8471 0.00444607 13.8227 0.0180303C13.7983 0.0316146 13.7778 0.0511994 13.7632 0.0749202C12.6446 1.83969 5.15069 13.6328 2.38302 17.7006C1.37936 19.1392 0.666061 20.7592 0.282956 22.4699C0.101042 23.2916 0.00620169 24.13 0 24.9715C0.0256312 27.1515 0.607359 29.2891 1.69031 31.1826C2.77326 33.0761 4.32174 34.6632 6.18967 35.7939C6.21859 35.8126 6.25257 35.822 6.28701 35.8208C6.32145 35.8196 6.35467 35.8078 6.38218 35.7871C6.40969 35.7664 6.43016 35.7377 6.4408 35.705C6.45144 35.6723 6.45175 35.6371 6.44167 35.6042C5.98553 34.1126 5.75166 32.5621 5.74755 31.0026C5.75705 28.0647 6.56868 25.185 8.0952 22.6729Z" fill="#4FB518"/>
<path fill-rule="evenodd" clip-rule="evenodd" d="M25.404 17.6831C24.8027 16.8007 23.9892 15.5609 23.043 14.1535C23.0284 14.1298 23.0079 14.1102 22.9835 14.0966C22.9592 14.0831 22.9317 14.0759 22.9038 14.0759C22.8759 14.0759 22.8484 14.0831 22.824 14.0966C22.7996 14.1102 22.7792 14.1298 22.7645 14.1535L18.3433 21.0847C18.3196 21.1132 18.3066 21.1491 18.3066 21.1862C18.3066 21.2232 18.3196 21.2591 18.3433 21.2876C19.3797 22.3084 19.9721 23.6951 19.9924 25.1481C19.9924 28.3203 17.269 30.8836 13.9 30.8836C12.9974 30.889 12.1045 30.6984 11.283 30.3251C10.4616 29.9518 9.7313 29.4047 9.14282 28.7217C9.12207 28.6966 9.0944 28.678 9.06321 28.6682C9.03202 28.6585 8.99867 28.658 8.96723 28.6669C8.93579 28.6758 8.90764 28.6937 8.88621 28.7183C8.86479 28.7429 8.85102 28.7733 8.8466 28.8056C8.64799 30.4509 8.71216 32.1173 9.03672 33.7425C9.2945 35.0411 9.71022 36.3035 10.2746 37.5015C10.2864 37.524 10.3027 37.5438 10.3225 37.5597C10.3423 37.5757 10.3651 37.5874 10.3896 37.5941C11.5378 37.8811 12.7164 38.0292 13.9 38.0353C21.5752 38.0353 27.787 32.216 27.787 25.0245C27.7633 22.3918 26.9316 19.8296 25.404 17.6831Z" fill="#4FB518"/>
<path d="M37.6421 33.1513H41.0508V24.5481H50.1452V21.4068H41.0508V15.658H50.9057V12.4902H37.6421V33.1513Z" fill="#1F261E"/>
<path d="M62.0648 26.8599C62.0648 28.9511 60.8357 30.2968 58.9346 30.2968C57.0335 30.2968 55.937 29.0658 55.937 26.9128V19.0022H52.6123V27.6717C52.6123 31.2321 54.6593 33.4425 57.9487 33.4425C58.7527 33.4583 59.5493 33.2862 60.2747 32.9399C61.0002 32.5937 61.6344 32.0828 62.1267 31.4483V33.1513H65.3542V19.0022H62.0471L62.0648 26.8599Z" fill="#1F261E"/>
<path d="M74.7182 18.7155C73.7649 18.6929 72.8176 18.8723 71.9389 19.2419C71.0601 19.6115 70.27 20.1629 69.6206 20.8597C68.2799 22.254 67.5457 24.1205 67.578 26.0526C67.5507 27.028 67.7233 27.9988 68.0852 28.9054C68.4471 29.8119 68.9906 30.6352 69.6825 31.3248C70.3809 32.0112 71.2105 32.5504 72.1219 32.9104C73.0333 33.2704 74.008 33.4439 74.9879 33.4205C76.2148 33.4573 77.4284 33.1581 78.497 32.5554C79.5656 31.9526 80.4483 31.0693 81.0493 30.0013L81.0891 29.9263L78.6973 28.3203L78.6486 28.413C78.3093 29.0877 77.7792 29.6484 77.1238 30.0256C76.4684 30.4028 75.7166 30.5799 74.9614 30.5351C73.9423 30.5588 72.9493 30.2123 72.1672 29.5601C71.8018 29.2603 71.5042 28.8867 71.2939 28.4639C71.0836 28.0411 70.9653 27.5787 70.9469 27.107H81.5578V27.0232C81.5938 26.6994 81.6115 26.3739 81.6108 26.0482C81.6108 23.8422 81.0096 22.1171 79.776 20.7538C78.5425 19.3906 76.8581 18.7155 74.7182 18.7155ZM74.7182 21.5701C76.7077 21.5701 78.1181 22.7613 78.2552 24.5437H71.1194C71.2544 23.6962 71.6943 22.9268 72.3567 22.3794C73.0191 21.8321 73.8586 21.5444 74.7182 21.5701Z" fill="#1F261E"/>
<path d="M87.2699 11.6785H83.9629V33.1514H87.2699V11.6785Z" fill="#1F261E"/>
<path d="M106.639 25.7568C106.148 27.0669 105.263 28.1934 104.106 28.982C102.791 29.9006 101.19 30.3197 99.5929 30.1635C97.9956 30.0074 96.5069 29.2862 95.3959 28.1305C94.7136 27.4211 94.1809 26.5823 93.8293 25.6639C93.4777 24.7454 93.3143 23.7658 93.3488 22.7832C93.3084 21.802 93.4713 20.823 93.8273 19.9075C94.1834 18.9919 94.7249 18.1596 95.418 17.4624C96.0404 16.8072 96.7906 16.286 97.6224 15.9309C98.4542 15.5759 99.35 15.3944 100.255 15.3976C103.221 15.3976 105.458 16.9639 106.559 19.8096L106.595 19.9022L109.69 18.4904L109.663 18.4154C109.109 16.7838 108.088 15.3498 106.727 14.2902C105.176 12.9666 102.841 12.2034 100.325 12.2034C98.9253 12.2015 97.5388 12.4774 96.2465 13.0152C94.9541 13.5529 93.7819 14.3416 92.7978 15.3355C91.8137 16.3295 91.0375 17.5087 90.5143 18.8047C89.991 20.1007 89.7312 21.4876 89.75 22.8847C89.7154 24.3381 89.9876 25.7826 90.549 27.1241C91.1104 28.4657 91.9483 29.6744 93.0084 30.6717C94.9906 32.4078 97.5335 33.3726 100.171 33.3895C102.515 33.4339 104.806 32.6895 106.674 31.2762C108.073 30.22 109.146 28.7919 109.769 27.1554L109.796 27.0716L106.701 25.6642L106.639 25.7568Z" fill="#1F261E"/>
<path d="M118.784 18.87C118.026 18.8489 117.276 19.0335 116.614 19.404C115.952 19.7746 115.403 20.3174 115.026 20.9745V19.0024H111.799V33.1515H115.106V25.9733C115.106 23.5732 116.366 22.2496 118.643 22.2496C118.939 22.2445 119.236 22.2697 119.527 22.3246H119.638V18.9715H119.567C119.312 18.901 119.049 18.8669 118.784 18.87Z" fill="#1F261E"/>
<path d="M127.586 18.7155C126.63 18.69 125.678 18.868 124.795 19.2377C123.913 19.6074 123.119 20.1603 122.467 20.8597C121.128 22.2551 120.394 24.1209 120.424 26.0526C120.402 27.0309 120.581 28.0032 120.95 28.9099C121.319 29.8166 121.87 30.6384 122.568 31.3249C123.266 32.012 124.096 32.5517 125.007 32.9118C125.919 33.2719 126.894 33.4449 127.874 33.4205C129.1 33.4575 130.313 33.1583 131.381 32.5555C132.449 31.9527 133.331 31.0692 133.931 30.0013L133.971 29.9263L131.561 28.3291L131.513 28.4218C131.173 29.0973 130.642 29.6585 129.986 30.0357C129.33 30.4129 128.577 30.5896 127.821 30.5439C126.809 30.5604 125.826 30.2109 125.053 29.5601C124.687 29.2605 124.389 28.8871 124.178 28.4643C123.967 28.0415 123.848 27.579 123.828 27.107H134.439V27.0232C134.476 26.6936 134.494 26.3622 134.492 26.0305C134.492 23.8246 133.896 22.0995 132.662 20.7362C131.429 19.3729 129.744 18.7155 127.586 18.7155ZM127.586 21.5701C129.572 21.5701 130.982 22.7613 131.123 24.5437H124.001C124.136 23.6985 124.574 22.9309 125.233 22.3839C125.893 21.8369 126.729 21.5477 127.586 21.5701Z" fill="#1F261E"/>
<path d="M147.61 20.7759C147.118 20.1161 146.446 19.612 145.674 19.3243C144.89 18.9562 144.038 18.7563 143.171 18.7376C142.204 18.705 141.241 18.8886 140.354 19.2748C139.467 19.6611 138.677 20.2402 138.043 20.97C136.783 22.3628 136.092 24.1763 136.106 26.0526C136.085 27.9557 136.797 29.7944 138.096 31.188C138.721 31.8902 139.492 32.4483 140.354 32.8239C141.217 33.1995 142.151 33.3835 143.092 33.3631C143.972 33.3363 144.839 33.1385 145.643 32.7808C146.466 32.4663 147.178 31.9169 147.69 31.2013V33.1514H150.917V11.6785H147.61V20.7759ZM146.51 22.9818C147.254 23.8342 147.664 24.9265 147.664 26.057C147.664 27.1875 147.254 28.2797 146.51 29.1321C146.137 29.5366 145.68 29.8555 145.172 30.0665C144.664 30.2775 144.115 30.3757 143.565 30.3542C143.01 30.3706 142.458 30.2689 141.946 30.0559C141.434 29.8429 140.973 29.5234 140.594 29.1188C139.866 28.2589 139.466 27.1695 139.466 26.0437C139.466 24.918 139.866 23.8285 140.594 22.9686C140.969 22.5576 141.429 22.2327 141.942 22.0163C142.454 21.8 143.008 21.6974 143.565 21.7156C144.119 21.6973 144.669 21.8008 145.178 22.0189C145.687 22.237 146.142 22.5643 146.51 22.9774V22.9818Z" fill="#1F261E"/>
<path d="M157.465 19.0022H154.158V33.1557H157.465V19.0022Z" fill="#1F261E"/>
<path d="M155.573 12.4109C155.151 12.4201 154.742 12.5519 154.394 12.79C154.047 13.0282 153.776 13.3623 153.616 13.7515C153.456 14.1407 153.413 14.5681 153.493 14.9812C153.573 15.3943 153.772 15.7752 154.065 16.0772C154.262 16.277 154.497 16.4358 154.755 16.5441C155.014 16.6525 155.292 16.7083 155.573 16.7083C155.854 16.7083 156.131 16.6525 156.39 16.5441C156.649 16.4358 156.884 16.277 157.081 16.0772C157.374 15.7752 157.573 15.3943 157.653 14.9812C157.732 14.5681 157.69 14.1407 157.53 13.7515C157.369 13.3623 157.099 13.0282 156.752 12.79C156.404 12.5519 155.994 12.4201 155.573 12.4109Z" fill="#1F261E"/>
<path d="M169 21.9893V19.0024H165.565V14.6875H162.258V19.0024H159.689V21.9893H162.258V28.563C162.258 31.6249 164.026 33.3103 167.201 33.3103C167.784 33.3131 168.363 33.213 168.912 33.0147H168.973V30.191L168.858 30.2175C168.538 30.2892 168.21 30.3232 167.881 30.319C166.259 30.319 165.565 29.6528 165.565 28.0865V21.9893H169Z" fill="#1F261E"/>
</g>
<defs>
<clipPath id="clip0_115_882">
<rect width="169" height="38" fill="white"/>
</clipPath>
</defs>
</svg>
