<svg class="mb-3" width="69" height="69" viewBox="0 0 69 69" fill="none" xmlns="http://www.w3.org/2000/svg"><circle cx="34.5" cy="34.5" r="34.5" fill="#DCF0D1"></circle><path fill-rule="evenodd" clip-rule="evenodd" d="M31.7302 19.2901L31.6594 19.2796C30.654 19.1312 29.796 19.0045 29.1054 19.0001C28.3704 18.9955 27.6469 19.1245 27.0397 19.6486C26.4325 20.1727 26.1993 20.8697 26.0965 21.5974C25.9999 22.2813 26 23.1486 26 24.1649L26 24.2365V27.5572H28V24.2365C28 23.1286 28.0024 22.4044 28.0768 21.8771C28.1473 21.3778 28.2606 21.2368 28.3466 21.1626C28.4325 21.0884 28.5886 20.9969 29.0928 21.0001C29.6253 21.0034 30.3422 21.1069 31.4381 21.2686L42.7302 22.9356C43.9778 23.1197 44.8207 23.246 45.448 23.421C46.0483 23.5883 46.3271 23.7689 46.514 23.9854C46.7009 24.2019 46.8388 24.5041 46.9167 25.1224C46.9982 25.7685 47 26.6209 47 27.882V42.3233C47 43.5845 46.9982 44.4368 46.9167 45.0829C46.8388 45.7012 46.7009 46.0034 46.514 46.2199C46.3271 46.4364 46.0483 46.617 45.448 46.7844C44.8207 46.9593 43.9778 47.0856 42.7302 47.2697L31.4381 48.9367C30.3422 49.0985 29.6253 49.2019 29.0928 49.2052C28.5886 49.2084 28.4325 49.1169 28.3466 49.0427C28.2606 48.9685 28.1473 48.8275 28.0768 48.3282C28.0024 47.8009 28 47.0767 28 45.9688V42.9549H26L26 46.0404C26 47.0567 25.9999 47.924 26.0965 48.6079C26.1993 49.3356 26.4325 50.0326 27.0397 50.5567C27.6469 51.0808 28.3704 51.2098 29.1054 51.2052C29.7959 51.2009 30.6539 51.0742 31.6593 50.9257L43.0859 49.2389C44.2536 49.0666 45.2222 48.9236 45.9852 48.7109C46.7891 48.4867 47.4858 48.1548 48.0279 47.5268C48.5701 46.8987 48.7967 46.161 48.901 45.333C49.0001 44.5471 49 43.5681 49 42.3877V42.3877V27.8176V27.8176C49 26.6373 49.0001 25.6582 48.901 24.8723C48.7967 24.0443 48.5701 23.3066 48.0279 22.6786C47.4858 22.0505 46.7891 21.7186 45.9852 21.4944C45.2222 21.2817 44.2536 21.1387 43.0859 20.9664L31.7302 19.2901ZM33.9026 28.2474L35.4307 26.957L42.3088 35.1022L35.4307 43.2474L33.9026 41.957L38.8467 36.1022H22C21.4477 36.1022 21 35.6545 21 35.1022C21 34.5499 21.4477 34.1022 22 34.1022H38.8467L33.9026 28.2474Z" fill="#4fb518"></path></svg>