<svg width="46" height="46" viewBox="0 0 46 46" fill="none" xmlns="http://www.w3.org/2000/svg"><circle cx="23" cy="23" r="23" fill="#4FB518"></circle><path fill-rule="evenodd" clip-rule="evenodd" d="M18.012 16.8722C18.012 14.4273 20.1273 12.3522 22.8549 12.3522C25.5824 12.3522 27.6977 14.4273 27.6977 16.8722C27.6977 19.3171 25.5824 21.3922 22.8549 21.3922C20.1273 21.3922 18.012 19.3171 18.012 16.8722ZM22.8549 10.4151C19.1633 10.4151 16.0749 13.2546 16.0749 16.8722C16.0749 20.4898 19.1633 23.3294 22.8549 23.3294C26.5464 23.3294 29.6348 20.4898 29.6348 16.8722C29.6348 13.2546 26.5464 10.4151 22.8549 10.4151ZM22.8549 26.5579C20.2816 26.5579 17.7608 27.2061 15.6822 28.4258C13.6038 29.6454 12.0519 31.3897 11.3377 33.4279C11.1608 33.9327 11.4267 34.4853 11.9315 34.6622C12.4363 34.8391 12.989 34.5733 13.1659 34.0684C13.7025 32.5368 14.9069 31.1267 16.6626 30.0965C18.4182 29.0663 20.5953 28.4951 22.8549 28.4951C25.1145 28.4951 27.2915 29.0663 29.0471 30.0965C30.8028 31.1267 32.0072 32.5368 32.5439 34.0684C32.7208 34.5733 33.2734 34.8391 33.7782 34.6622C34.2831 34.4853 34.5489 33.9327 34.372 33.4279C33.6579 31.3897 32.106 29.6454 30.0275 28.4258C27.949 27.2061 25.4281 26.5579 22.8549 26.5579Z" fill="white"></path></svg>